<?xml version="1.0" encoding="utf-8"?>
<!-- Generator: Adobe Illustrator 16.0.0, SVG Export Plug-In . SVG Version: 6.00 Build 0)  -->
<!DOCTYPE svg PUBLIC "-//W3C//DTD SVG 1.1//EN" "http://www.w3.org/Graphics/SVG/1.1/DTD/svg11.dtd">
<svg version="1.1" id="Layer_1" xmlns="http://www.w3.org/2000/svg" xmlns:xlink="http://www.w3.org/1999/xlink" x="0px" y="0px"
	 width="600px" height="300px" viewBox="0 0 600 300" enable-background="new 0 0 600 300" xml:space="preserve">
<path id="path1" d="M552.336,288.65c2.112,4.922,10.236,8.031,17.715,7.222c7.578-0.636,14.238-5.019,14.523-10.187
	c0.459-4.629-4.449-9.08-11.109-10.31c-7.422-1.562-16.215,0.74-19.836,5.362c-1.971,2.361-2.535,5.238-1.326,7.834"/>
<path id="path2" d="M478.797,275.818c2.925,6.793,14.151,11.096,24.483,9.976c10.467-0.886,19.674-6.933,20.055-14.086
	c0.651-6.38-5.415-12.681-15.339-14.235c-10.251-2.158-22.407,1.016-27.414,7.401c-2.73,3.272-3.498,7.248-1.836,10.828"/>
<path id="path3" d="M391.938,250.506c4.104,9.313,19.18,14.576,32.419,13.436c14.288-0.901,27.779-8.551,29.13-18.787
	c1.106-7.559-5.706-15.166-15.732-18.288c-16.212-5.464-37.671-0.444-44.724,10.896c-2.523,3.891-3.055,8.428-1.164,12.588"/>
<path id="path4" d="M149.799,27.098c31.731-40.384,106.026-15.386,111.171,3.416c9.561-11.374,25.143-20.288,44.829-24.296
	c31.281-6.37,64.11,1.398,84.478,17.964c46.817-7.52,97.047,1.284,110.352,30.318c11.872,20-4.404,51.424-29.07,66.288
	c1.186,1.868,2.286,3.764,3.192,5.746c14.19,30.97-11.976,63.778-58.419,73.233c-15.219,3.103-30.753,3.25-45.229,1.037
	c-10.739,21.209-37.221,39.1-73.157,46.422c-45.045,9.172-91.641-1.043-117.678-23.248c-8.583,3.981-18.231,7.127-28.749,9.271
	c-55.29,11.262-96.873,4.838-114.222-39.322c-7.935-20.191,10.818-37.02,10.818-37.02C7.008,142.48,3.396,99.27,49.557,84.788
	c-53.364-27.884,6.12-82.892,62.742-71.152C126.423,16.564,149.799,27.098,149.799,27.098z"/>
</svg>
